<svg xmlns="http://www.w3.org/2000/svg" viewBox="0 0 256 256" fill="none" shape-rendering="auto"><metadata xmlns:rdf="http://www.w3.org/1999/02/22-rdf-syntax-ns#" xmlns:xsi="http://www.w3.org/2001/XMLSchema-instance" xmlns:dc="http://purl.org/dc/elements/1.1/" xmlns:dcterms="http://purl.org/dc/terms/"><rdf:RDF><rdf:Description><dc:title>Croodles - Doodle your face</dc:title><dc:creator>vijay verma</dc:creator><dc:source xsi:type="dcterms:URI">https://www.figma.com/community/file/966199982810283152</dc:source><dcterms:license xsi:type="dcterms:URI">https://creativecommons.org/licenses/by/4.0/</dcterms:license><dc:rights>Remix of „Croodles - Doodle your face” (https://www.figma.com/community/file/966199982810283152) by „vijay verma”, licensed under „CC BY 4.0” (https://creativecommons.org/licenses/by/4.0/)</dc:rights></rdf:Description></rdf:RDF></metadata><mask id="viewboxMask"><rect width="256" height="256" rx="0" ry="0" x="0" y="0" fill="#fff" /></mask><g mask="url(#viewboxMask)"><path d="m176 91.2.3.4c.3.1.7.4.9.7a81 81 0 0 1 8 27.7c4.7-1.6 11.8 2 11.8 10 0 4-.3 6.7-1 9-.6 2.3-1.6 4-3 5.8a9.4 9.4 0 0 1-7.7 3.3 71.7 71.7 0 0 1-26.1 49.2 51.6 51.6 0 0 1-37.2 11.4 43.6 43.6 0 0 1-30.2-18 114.1 114.1 0 0 1-19.5-42.3c-1.5.2-3.8 0-6-1.2-3-1.5-5.7-4.7-6.8-10.6-1-5.3-.4-10 1.7-13a8 8 0 0 1 4.3-3.1c1.5-.5 3.2-.5 5 0A42.2 42.2 0 0 1 96 84.3a90.3 90.3 0 0 1 26.3-7.5c19.1-2.5 40.5.5 53.7 14.4Z" fill="#ffffff"/><g stroke="#000" stroke-width="3" stroke-linecap="round" stroke-linejoin="round"><path d="M81.3 95c-17 17-15 61 11 96.5 15 20.5 42.2 25.1 66.7 6.5 34.5-26.2 30.5-83 18-106"/><path d="M186.4 121.4c3.6-1.9 10.7.8 10.7 8.7 0 7.8-1.1 10.8-3.7 14.2-2 2.6-5.6 3.2-8 2.7M69.7 121.9c-7.7-2.4-12.2 4-10.2 14.6 2.1 11.4 10.2 11.3 12.5 10.8"/></g><g transform="translate(112 123)"><path d="M20.8 8c2.7 8 7.6 25.3 5.8 29.4-2.1 5-5.4-2.3-5.4 3.5-1 2.8-3.8 3.2-5.1-1.6-1.3-4.7-5.2 3.5-6.5 1.6-3.6-1.6-.7-7.1 1.2-8.9" stroke="#000" stroke-width="3" stroke-linecap="round" stroke-linejoin="round"/></g><g transform="translate(60 128)"></g><g transform="translate(95 180)"><path d="M13.6 14.5c4.7 4 12.5 10.4 22.9-2 6.6-7.8 15.9.9 18.4-3.2M10 17.3c1.6-1 4.8-3.8 5-6.7M55.3 6c-.1 1.9.1 6 2.2 8" stroke="#000" stroke-width="3" stroke-linecap="round" stroke-linejoin="round"/></g><g transform="translate(-1 -13)"><g stroke="#0fa958" stroke-width="3" stroke-linecap="round" stroke-linejoin="round"><path d="M116.5 77c11.4-6.3 49-9 61 29.4 18 58.5 31.5 61.8 38.3 66.5"/><path d="M185 144c5.4 32.3-.3 71.4 1.3 85.3 2 17.5 5.4 22.2 14.8 28.3"/><path d="M169.5 76c17.5 18 12.5 37 8 117.5-2 34.9 16 48.3 20.6 50.5"/><path d="M117.6 76.8c8.1-7.3 34.4-15.3 53.4 0 17.7 14.4 21.8 33.6 22.6 81.4.5 33.8 4.7 43.2 6.7 43.6M115.6 77.5A71.7 71.7 0 0 0 78 142.7c0 33 4 82-13.4 104.2"/><path d="M114.7 76a56 56 0 0 0-42.3 51.7c-3.4 31.6 2 76-9.4 102.9"/><path d="M46.4 241.5c-.2-10.3.3-33.8 4-45 4.7-14.2 3.5-88.7 32.3-111 17.5-13.4 33-12.7 36.3-10M119 74.8c3.3-8 20.3-18 44.3-9.4 30.3 10.8 48.4 39.8 43.7 76.1-4.5 34.6-19.7 79.4-1 108"/><path d="M117.6 72.8c2.7-8.3 13.2-23.4 33.6-17.5 25.6 7.4 49.8 31.6 53.1 95.5 3.4 63.8-10 86 24.2 114.9M116.3 72.1c-10.8-7.4-38.3 2-57.1 37.7C39.9 146.2 43.7 217.3 37 234"/><path d="M119 74.2c-2.7-7-12.4-19-29.6-11.5-21.5 9.4-37 24.9-47 84.7-10.1 59.8 6 74.6-2 102.8M120 80.5a67 67 0 0 0 2.8 21.9M125 79c1.5 5.5 4.5 18.5 9.5 23M131.5 78c4.5 8.5 10.2 18.9 12.3 23.7M142.5 78c7.5 3 15.5 10.5 20 17.5M137 78c5 3 10.3 13.2 16.3 19.7M115 85c-.3 3.5-1.8 11.7-6 16"/><path d="M99.5 97c2-1.3 5.5-6 11-12.5M60.5 171.6c.5 11.6-1.6 36.7-2.7 46.4-1.3 12-6 23.5-10.7 30.2"/></g></g><g transform="translate(67 152)"></g><g transform="translate(71 102)"><path d="M30.2 23.6c2.6 1.8 7.7 6 8.2 7.8.4 2-8.8 5.3-13.4 6.8M89.4 22c-3.6 1.3-10.5 4.3-9.7 6 1 2.1 6.9 3.7 9.7 5.8" stroke="#000" stroke-width="3" stroke-linecap="round" stroke-linejoin="round"/></g></g></svg>